<?xml version="1.0" encoding="utf-8"?>
<!-- Generator: Adobe Illustrator 23.0.4, SVG Export Plug-In . SVG Version: 6.00 Build 0)  -->
<svg version="1.1"
     id="svg14103" xmlns:cc="http://creativecommons.org/ns#" xmlns:dc="http://purl.org/dc/elements/1.1/" xmlns:rdf="http://www.w3.org/1999/02/22-rdf-syntax-ns#" xmlns:svg="http://www.w3.org/2000/svg"
     xmlns="http://www.w3.org/2000/svg" xmlns:xlink="http://www.w3.org/1999/xlink" x="0px" y="0px" viewBox="0 0 145 149"
     style="enable-background:new 0 0 145 149;" width="145" height="149" xml:space="preserve">
<style type="text/css">
	.st0{fill:#FD5312;}
</style>
  <g id="g14111" transform="matrix(1.25,0,0,-1.25,-182.99536,264.4479)">
	<path id="path14133" class="st0" d="M201,185.6c-19.7,0-33.8-13.9-33.8-33.6c0-6.7,2.3-13.2,5.3-17.6h-10.3c-2.6,0-4.7-0.9-6-2.4
		c-1.3-1.4-1.8-3.4-1.8-5.9c0-2.4,0.5-4.3,1.8-5.7c1.3-1.4,3.4-2.4,6-2.4h46.3c19.7,0,33.8,14.2,33.8,33.9c0,6.7-2.4,13.2-5.3,17.6
		h9.2c2.6,0,4.7,0.7,6,2.1s1.8,3.6,1.8,6c0,2.4-0.5,4.4-1.8,5.9c-1.3,1.4-3.4,2.1-6,2.1H201z M202.8,169.5h5.4
		c9.9,0,16.9-7.2,16.9-17.6c0-5.3-1.8-9.6-4.9-12.7c-3.1-3.1-7.5-4.9-12.7-4.9h-5.4c-5.1,0-9.3,1.8-12.3,4.9
		c-2.9,3.1-4.6,7.5-4.6,12.7c0,5.3,1.8,9.6,4.9,12.7C193.2,167.7,197.5,169.5,202.8,169.5L202.8,169.5z"/>
</g>
</svg>
